<?xml version="1.0" encoding="utf-8"?>
<!-- Generator: Adobe Illustrator 17.0.0, SVG Export Plug-In . SVG Version: 6.00 Build 0)  -->
<!DOCTYPE svg PUBLIC "-//W3C//DTD SVG 1.1//EN" "http://www.w3.org/Graphics/SVG/1.1/DTD/svg11.dtd">
<svg version="1.1" id="Layer_1" xmlns="http://www.w3.org/2000/svg" xmlns:xlink="http://www.w3.org/1999/xlink" x="0px" y="0px"
	 width="16px" height="16px" viewBox="0 0 16 16" enable-background="new 0 0 16 16" xml:space="preserve">
<path fill="#231F20" d="M15.636,13.813l-5.8-5.799l5.8-5.8c0.503-0.503,0.503-1.32,0.001-1.823c-0.503-0.503-1.32-0.503-1.823,0
	l-5.8,5.8l-5.8-5.8c-0.503-0.503-1.32-0.503-1.823,0c-0.503,0.503-0.503,1.319-0.001,1.823l5.8,5.8l-5.8,5.799
	c-0.503,0.503-0.504,1.319-0.001,1.822c0.503,0.503,1.32,0.503,1.823,0l5.8-5.799l5.8,5.799c0.503,0.503,1.32,0.503,1.823,0
	C16.139,15.132,16.139,14.316,15.636,13.813z"/>
</svg>
